<?xml version="1.0" encoding="UTF-8"?>
<!DOCTYPE svg PUBLIC "-//W3C//DTD SVG 1.1//EN" "http://www.w3.org/Graphics/SVG/1.1/DTD/svg11.dtd">
<!-- Creator: CorelDRAW 2020 (64 Bit) -->
<svg xmlns="http://www.w3.org/2000/svg" xml:space="preserve" width="512" height="512" viewBox="0 0 1594 1594" version="1.1" style="shape-rendering:geometricPrecision; text-rendering:geometricPrecision; image-rendering:optimizeQuality; fill-rule:evenodd; clip-rule:evenodd"
 xmlns:xlink="http://www.w3.org/1999/xlink"
 xmlns:xodm="http://www.corel.com/coreldraw/odm/2003">
 <defs>
  <style type="text/css">
   <![CDATA[
    .fil0 {fill:#FEFEFE}
    .fil1 {fill:#FEFEFE;fill-rule:nonzero}
    .fil3 {fill:#27272A;fill-rule:nonzero}
    .fil2 {fill:#FA5401;fill-rule:nonzero}
   ]]>
  </style>
 </defs>
 <g id="Camada_x0020_1" transform="translate(0, 269.64)">
  <metadata id="CorelCorpID_0Corel-Layer"/>
  <g id="_1451530951632">
   <path class="fil0" d="M621.5 10.2l197.59 -0.01c7.94,42.83 15.62,85.72 23.05,128.64l56.52 318.64 58.36 330.77c4.92,28.38 10.52,56.66 15.19,85.05l-141.01 -0.02 -25.92 -150.32 -2.26 -12.93 -172.29 0.09c-9.64,54.22 -17.97,108.94 -27.81,163.04l-134.11 -0.02 152.69 -862.93zm93.92 161.77c2.57,6.32 7.36,41.38 8.9,51.2l14.25 88.15 44.95 273.46 -63.86 -0.15 -69.51 0.05 41.17 -258.98 12.75 -81.73c3.47,-23.18 6.95,-49.14 11.35,-72z"/>
   <path class="fil1" d="M162.02 880.21c-96.44,-17.47 -147.46,-79.67 -160.01,-175.4 -4.05,-30.89 -2.6,-61.32 -2.6,-92.39l0.03 -135.08 -0.02 -173.37c0,-50.69 -2.23,-91.08 6.37,-141.23 22.82,-133.08 135.7,-179.83 258.51,-157.22 47.92,8.82 87.76,34.44 114.75,75.5 42.21,64.38 36.84,142.8 36.8,216.59l-136.55 0.01 0.07 -55.41c0.01,-32.69 2.66,-71.52 -22,-96.88 -24.72,-25.42 -72.77,-25.07 -97.39,0.38 -26.82,27.72 -22.7,72.58 -22.7,108.44l0 98.02c0.02,103.92 -0.01,207.98 0.02,311.92 0.4,25.92 2.7,53.9 21.88,73.19 24.14,24.28 76.75,24.2 100.07,-0.53 24.78,-26.28 20.19,-78.28 20.21,-112.25l0.13 -106.81 -68.2 0.14 -0.06 -126.74 204.58 -0.04 -0.07 175.03c0.03,58.05 4.12,127.1 -11.03,182.08 -8.47,31.47 -25.03,60.19 -48.04,83.29 -39.59,39.34 -88.59,49.72 -142.19,52.51 -3.33,2.05 -46.15,1.63 -52.09,1.22l-1.07 -1.35 0.6 -3.62z"/>
   <path class="fil0" d="M1040.63 10.24l156.36 -0.01c23.75,0 47.55,-0.33 71.3,0.28 90.24,2.32 152.29,42.05 181.73,128.06 4.19,0.12 3.35,-0.57 5.8,1.61 0.56,3.29 0.48,5.26 0.5,8.62l23.44 0.05 0.04 30.94 -18.74 0.1c0.86,7.53 1.9,15.42 2.47,22.94l25.08 0.11 0 15.4 51.75 0.07 0.03 16.48 -37.93 0.09 -0.15 16.67 -14.26 0.31 0.13 19.79 -11.98 0.11 -0.15 64.68 -11.9 0.21 -0.61 18.27 26.29 -0.04 -0.02 14.5c-3.43,0.02 -6.26,-0.49 -8.81,1.51 -1.46,2.87 -0.9,7.7 -0.82,11.12l-24.21 -0.02c-27.82,120.77 -105.61,161.18 -224.01,156.63 -15.36,-0.59 -32.27,0.15 -47.87,-0.17 -8.15,-0.97 -36.85,-0.35 -46.51,-0.34l-97.13 -0.04c0.83,-62.69 0.25,-126.89 0.25,-189.66l-0.07 -338.27zm141.44 127.25c24.61,-0.08 62.13,-1.2 85.2,1.43 16.19,3.84 28.66,9.22 38.6,23.75 2.16,3.15 5.01,9.24 4.53,13.14l-2.15 1.54c-0.16,5.18 -0.15,9.81 -0.08,14.98l10.6 0.19 0.03 25.82 43.85 0.03 -0.07 33.28c-6.43,0.17 -13.81,1.44 -18.54,-2.6 -0.68,-2.33 -0.55,-2.3 -0.34,-4.75 -2.68,-1.43 -2.14,-0.94 -5.66,-0.8l-1.23 0.96c-0.49,9.95 -10.11,7.43 -18.18,7.31l-0.03 73.56 -30.27 -0.01 0.04 30.82 28.1 0.38c-2.35,9.52 -4.54,16.36 -8.05,25.57 -19.16,31.53 -50.26,28.81 -82.7,28.76l-43.71 -0.01c1.14,-90.23 0.03,-182.95 0.06,-273.35z"/>
   <path class="fil2" d="M1450.02 138.57c4.19,0.12 3.35,-0.57 5.8,1.61 0.56,3.29 0.48,5.26 0.5,8.62l23.44 0.05 0.04 30.94 -18.74 0.1c0.86,7.53 1.9,15.41 2.47,22.94l25.08 0.11 0 15.4 51.75 0.07 0.03 16.48 -37.93 0.09 -0.15 16.67 -14.26 0.31 0.13 19.8 -11.98 0.1 -0.15 64.68 -11.9 0.21 -0.61 18.27 26.29 -0.04 -0.02 14.5c-3.43,0.02 -6.26,-0.49 -8.81,1.51 -1.46,2.87 -0.9,7.7 -0.82,11.12l-24.21 -0.02 -147.55 0c3.51,-9.21 5.7,-16.05 8.05,-25.57l-28.1 -0.38 -0.04 -30.82 30.27 0.01 0.03 -73.56c8.07,0.12 17.69,2.64 18.18,-7.31l1.23 -0.96c3.52,-0.14 2.98,-0.63 5.66,0.8 -0.21,2.45 -0.34,2.42 0.34,4.75 4.73,4.04 12.11,2.77 18.54,2.6l0.07 -33.28 -43.84 -0.03 -0.04 -25.82 -10.6 -0.19c-0.07,-5.17 -0.08,-9.8 0.08,-14.98l2.15 -1.54c0.48,-3.9 -2.37,-9.99 -4.53,-13.14 -9.94,-14.53 -22.41,-19.91 -38.6,-23.75 57.88,-1.75 124.31,-0.25 182.75,-0.35z"/>
   <path class="fil3" d="M1399.89 180.67l52.89 -0.11c0.1,7.31 -0.02,14.83 -0.03,22.16l-52.95 -0.17 0.09 -21.88z"/>
   <polygon class="fil3" points="1440.31,336.11 1455.24,336.16 1455.01,355.07 1440.37,355.18 "/>
   <polygon class="fil2" points="1266.71,201.16 1284.13,201.11 1284.15,218.97 1266.62,218.96 "/>
   <polygon class="fil2" points="1261.42,263.02 1278.77,263.01 1278.74,280.9 1261.44,280.85 "/>
   <path class="fil2" d="M1040.45 538.17l97.13 0.04c9.66,-0.01 38.36,-0.63 46.51,0.34 -2.34,3.41 -1.28,38.42 -1.23,45.44l44.42 0.01 0.03 12.99c-7.27,-0.03 -40.22,-1.25 -44.66,1.49 0.13,4.35 0.75,3.4 -1.22,6.51 -4.65,2.56 -8.12,1.73 -13.81,1.67l-0.04 18.1 15.38 0 0.12 57.04c9.93,-0.05 34.61,-0.74 43.33,0.4 1.61,1.85 1.07,2.18 1.24,5.29 -2.48,3.04 -14.4,1.94 -18.61,1.87l0.01 28.09 18.99 0.08 0.07 24.71 -28.87 0.05 -0.37 10.05 -33.96 0.07 0.02 26.29 17.93 0.04 -0.08 14.7c14.72,0.3 30.37,0.06 45.16,0.08l-0.02 18.97 -44.4 -0.01 0.01 26.05 15.4 0.09 0.03 16.94 -15.44 0.01 -0.11 18.04 -143.2 -0.11 -0.02 -60.83 -16.67 -0.39 0.05 -18.69 16.69 0.25 0.04 -52.99 36.16 -0.09 0.12 -18.55 -15.74 -0.19 -0.07 -22.22 16.16 -0.1c-0.51,-4.77 -0.33,-13.23 -0.37,-18.31l-36.3 0.09 -0.02 -27.31 -16.51 0.01 0.09 -47.74 16.17 -0.06 0.32 -10.39 37.73 -0.05 0.11 -10.65 -37.95 -0.01 0.25 -47.11z"/>
   <path class="fil3" d="M1182.78 793.44l-0.19 18.87 -45.4 0.02 0.03 -18.93c15.08,-0.14 30.45,0.02 45.56,0.04z"/>
   <path class="fil3" d="M1076.93 699.7l27.14 0.07c0.02,7.18 0.24,15.57 -0.05,22.65l-27.11 -0.06 0.02 -22.66z"/>
   <path class="fil0" d="M719.81 954.32c15.47,-0.08 53.48,-2.44 66.37,5.18 28.25,16.7 23.01,54.88 -11.18,64.32 -9.88,1.7 -22.62,1.24 -32.84,1.2l-0.08 27.73 -22.5 0c0.24,-32.82 0.32,-65.62 0.23,-98.43zm22.47 18.36c5.22,-0.08 10.44,-0.12 15.65,-0.08 18.27,0.19 31.39,11.28 18.74,28.93 -9.84,6.2 -22.79,4.65 -34.45,4.53l0.06 -33.38z"/>
   <path class="fil0" d="M655.17 976.79c1.95,2.65 13.45,32.75 15.26,37.4l-14.3 0.05 -16.07 -0.01c4.91,-12.53 9.94,-25.01 15.11,-37.44zm-11.65 -22.39l23.3 0 43.77 98.29c-8.07,-0.12 -16.28,-0.06 -24.35,-0.09 -2.9,-6.96 -5.77,-13.93 -8.59,-20.93l-8.17 -0.05 -36.91 0.08c-2.79,7.74 -5.25,13.39 -8.7,20.89 -7.75,-0.03 -15.65,0.13 -23.42,0.21 14.75,-31.4 28.74,-66.36 43.07,-98.4z"/>
   <path class="fil1" d="M549.95 952.88c18.99,-1.7 32.3,3.69 45.91,16.7 -5.59,4.92 -9.72,8.78 -14.89,14.12 -25.27,-27.72 -66.6,-2.38 -53.62,31.06 2.9,7.68 8.8,13.84 16.35,17.05 10.39,4.45 19.89,2.5 29.8,-1.6 -0.03,-5.66 -1.37,-23.55 0.85,-27.46l2.35 -0.35 17.38 -0.02 -0.12 39.48c-48.46,37.54 -117.74,-13.21 -81.71,-69.23 7.8,-12.14 23.71,-17.82 37.7,-19.75z"/>
   <path class="fil1" d="M346.02 997.31c-0.08,-13.66 -0.56,-27.88 0.3,-41.38 0.19,-3.11 7.92,-1.4 9.78,-0.46 1.14,5.44 0.71,25.15 0.71,31.85l-0.14 64.29 -1.7 1.07c-3.17,0.05 -6.23,0.5 -8.55,-1.14 -1.17,-9.47 -0.46,-34.07 -0.42,-44.68l-58.84 0.07c0.01,6.22 0.93,43.1 -1.24,45.49 -4.31,0.15 -4.74,0.22 -8.85,-0.81 -2.33,-7.65 -0.64,-84.17 -0.63,-97.27 2.96,-0.04 8.11,-0.5 10.33,1.17 1.12,7.77 0.44,32.73 0.38,41.79l58.87 0.01z"/>
   <path class="fil1" d="M384.9 954.39l66.67 -0.05 -0.06 9.36 -55.79 0.04 0.02 33.83 50.34 0 0.12 9.41 -47.82 -0.06 -1.36 0.17c-2.35,3.57 -1.34,29.82 -1.29,36.23l36.17 -0.06c6.54,-0.03 17.1,-1.64 21.96,2.6 1.11,3.21 1.12,1.66 0.17,4.79 -4.44,3.32 -58.67,1.89 -69.19,1.88l0.06 -98.14z"/>
   <path class="fil1" d="M1064.44 954.32c9,0.01 62.16,-1.28 66.72,1.83 0.72,3.39 0.89,1.81 -0.45,4.94 -4.95,4.28 -13.54,2.63 -20.02,2.6l-35.7 -0.05 -0.01 34c8.73,-0.06 42.85,-0.81 49,0.6 1.28,2.62 0.78,4.04 0.71,7.24 -3.58,2.77 -42.8,1.47 -49.52,1.46 -0.48,11.42 -0.14,24.83 -0.09,36.4l58.11 -0.05 -0.2 9.16c-22.71,0.32 -45.9,0.14 -68.65,0.2 0.61,-32.16 0.08,-66.05 0.1,-98.33z"/>
   <path class="fil1" d="M1173.83 953.76c9.44,-0.88 33.84,0.02 39.53,8.57 0.21,2.98 -1.83,5.73 -3.37,8.46 -39.44,-23.56 -73.53,11.27 -34.28,24.77 21.83,7.5 56.25,10.65 37.31,46.92 -3.84,7.34 -20.97,10.78 -28.45,11.48 -16.06,-0.01 -25.94,-3.16 -38.55,-12.9l4.29 -9.25c3.04,2.75 6.25,5.08 9.9,7.15 10.65,6.8 39.25,9.18 45.66,-4.99 6.85,-15.13 -8.38,-21.54 -19.66,-24.34 -10.91,-3.05 -33.93,-7.64 -37.04,-21.13 -4.67,-20.3 8.4,-30.34 24.66,-34.74z"/>
   <path class="fil1" d="M859.73 954.34c9.89,-0.01 62.63,-1.81 66.22,1.71 0.25,3.26 0.48,3.56 -0.58,6.73 -4.5,2.35 -46.78,0.86 -55.14,0.86l0 37.86 47.27 0.01 1.89 0.39 1.83 3.62c-0.28,2.59 -0.11,1.6 -1.84,4.02 -7.53,2.99 -39.1,1.7 -49.11,1.6l-0.03 41.52 -10.5 0.1 -0.01 -98.42z"/>
   <path class="fil1" d="M183.16 954.4c9.6,0.01 72.49,-1.03 76.77,0.86 1.02,3.24 0.74,4.33 0.53,7.66 -2.18,1.36 -28.26,0.87 -32.95,0.88l0 55.61 -0.01 33.22 -10.73 0.01 -0.03 -88.84c-7.79,0.03 -26.06,0.56 -32.88,-0.49 -1.14,-2.36 -0.74,-6.12 -0.7,-8.91z"/>
   <path class="fil1" d="M984.95 954.23c3.07,-0.01 8.02,-0.44 10.33,1.14 0.84,8.87 0.46,22.49 0.46,31.7l-0.03 56.29c8.87,0.01 45.48,-0.69 52.44,0.38 1.58,2.37 1.05,5.84 0.95,8.87l-64.22 0.12 0.07 -98.5z"/>
   <path class="fil1" d="M945.27 954.32c3.54,-0.07 6.95,-0.48 10.15,0.92 1.01,4.53 0.62,24.86 0.62,30.89l-0.05 66.61 -10.71 -0.03 -0.01 -98.39z"/>
   <path class="fil2" d="M1488.18 271.76c10.09,-0.1 20.17,-0.15 30.25,-0.13l0 30.16 -30.02 -0.11c-0.03,-8.69 0.29,-21.58 -0.23,-29.92z"/>
   <polygon class="fil2" points="1544.11,306.53 1573.97,306.5 1573.84,336.28 1544.05,336.28 "/>
   <polygon class="fil2" points="1513.49,148.7 1542.92,148.62 1542.9,178.61 1513.54,178.68 "/>
   <path class="fil2" d="M972.39 657.42l25.8 -0.04 0.03 25.43c-7.05,0.5 -18.5,0.15 -25.88,0.15l0.05 -25.54z"/>
   <polygon class="fil2" points="973.47,563.12 994.59,563.03 994.5,584.88 973.36,584.87 "/>
   <polygon class="fil2" points="1277.94,810.22 1299.22,810.19 1299.24,831.37 1277.89,831.4 "/>
   <polygon class="fil2" points="1247.11,624.3 1267.83,624.28 1267.8,645.03 1247.04,645.02 "/>
   <path class="fil2" d="M981.98 761.28l30.83 0.04 -0.05 13.62c-8.53,0.56 -21.86,0.22 -30.71,0.24l-0.07 -13.9z"/>
   <path class="fil2" d="M1240.56 777.02l17.08 -0.05c0.08,5.28 -0.01,9.66 -0.24,14.92l-16.85 0.11 0.01 -14.98z"/>
   <polygon class="fil2" points="1578.35,233.23 1593.16,233.27 1593.16,247.62 1578.28,247.63 "/>
  </g>
 </g>
</svg>
